<?xml version="1.0" encoding="UTF-8" standalone="no"?><!-- Generator: Gravit.io --><svg xmlns="http://www.w3.org/2000/svg" xmlns:xlink="http://www.w3.org/1999/xlink" style="isolation:isolate" viewBox="0 0 1000 500" width="1000pt" height="500pt"><defs><clipPath id="_clipPath_KaUBktY0iEWBK0KDTfja7CHxxK9UfIXu"><rect width="1000" height="500"/></clipPath></defs><g clip-path="url(#_clipPath_KaUBktY0iEWBK0KDTfja7CHxxK9UfIXu)"><g><path d=" M 217.192 154.683 L 347.175 154.683 L 361.282 191.239 L 353.578 208.558 L 323.655 208.558 L 257.808 356.708 L 275.982 356.708 L 199.234 466.383 L 217.192 387.493 L 197.947 387.493 L 220.612 336.184 L 194.534 336.184 L 251.398 208.558 L 236.645 208.558 L 217.192 154.683 Z " fill="rgb(238,117,39)"/><path d=" M 461.641 26.104 L 544.648 26.104 L 553.66 49.452 L 548.745 60.511 L 529.629 60.511 L 497.823 132.049 L 451.674 132.049 L 483.487 60.511 L 474.066 60.511 L 461.641 26.104 Z " fill="rgb(238,117,39)"/><path d=" M 758.857 132.051 L 790.67 60.505 L 781.249 60.505 L 749.436 132.051 L 703.293 132.051 L 738.786 52.32 L 729.365 26.105 L 832.853 26.105 L 841.598 49.453 L 804.862 132.051 L 758.857 132.051 Z " fill="rgb(238,117,39)"/><mask id="_mask_2LFKvZgou93FSfRxvkMo4n8lb5TYEXfo" x="-200%" y="-200%" width="400%" height="400%"><rect x="-200%" y="-200%" width="400%" height="400%" style="fill:white;"/><path d=" M 217.192 154.683 L 347.175 154.683 L 361.282 191.239 L 353.578 208.558 L 323.655 208.558 L 257.808 356.708 L 275.982 356.708 L 199.234 466.383 L 217.192 387.493 L 197.947 387.493 L 220.612 336.184 L 194.534 336.184 L 251.398 208.558 L 236.645 208.558 L 217.192 154.683 Z " fill="black" stroke="none"/></mask><path d=" M 217.192 154.683 L 347.175 154.683 L 361.282 191.239 L 353.578 208.558 L 323.655 208.558 L 257.808 356.708 L 275.982 356.708 L 199.234 466.383 L 217.192 387.493 L 197.947 387.493 L 220.612 336.184 L 194.534 336.184 L 251.398 208.558 L 236.645 208.558 L 217.192 154.683 Z " fill="none" mask="url(#_mask_2LFKvZgou93FSfRxvkMo4n8lb5TYEXfo)" vector-effect="non-scaling-stroke" stroke-width="2.667" stroke="rgb(238,117,39)" stroke-linejoin="miter" stroke-linecap="butt" stroke-miterlimit="10"/><path d=" M 217.192 154.683 L 347.175 154.683 L 361.282 191.239 L 353.578 208.558 L 323.655 208.558 L 257.808 356.708 L 275.982 356.708 L 199.234 466.383 L 217.192 387.493 L 197.947 387.493 L 220.612 336.184 L 194.534 336.184 L 251.398 208.558 L 236.645 208.558 L 217.192 154.683 Z " fill="none"/><mask id="_mask_MnQRfGqFHM3jLXyQRQvSU2dYmroL8gjP" x="-200%" y="-200%" width="400%" height="400%"><rect x="-200%" y="-200%" width="400%" height="400%" style="fill:white;"/><path d=" M 88.655 52.319 L 79.227 26.104 L 146.403 26.104 L 115.143 96.55 L 150.363 96.55 L 134.532 132.049 L 53.163 132.049 L 88.655 52.319 Z " fill="black" stroke="none"/></mask><path d=" M 88.655 52.319 L 79.227 26.104 L 146.403 26.104 L 115.143 96.55 L 150.363 96.55 L 134.532 132.049 L 53.163 132.049 L 88.655 52.319 Z " fill="none" mask="url(#_mask_MnQRfGqFHM3jLXyQRQvSU2dYmroL8gjP)" vector-effect="non-scaling-stroke" stroke-width="2.667" stroke="rgb(238,117,39)" stroke-linejoin="miter" stroke-linecap="butt" stroke-miterlimit="10"/><path d=" M 88.655 52.319 L 79.227 26.104 L 146.403 26.104 L 115.143 96.55 L 150.363 96.55 L 134.532 132.049 L 53.163 132.049 L 88.655 52.319 Z " fill="none"/><mask id="_mask_ZdE7PpRFC4ufkTfgrZ09ODYPobHKjS8q" x="-200%" y="-200%" width="400%" height="400%"><rect x="-200%" y="-200%" width="400%" height="400%" style="fill:white;"/><path d=" M 182.854 52.319 L 173.433 26.104 L 221.351 26.104 L 230.233 49.452 L 177.148 168.39 L 199.267 168.39 L 133.284 292.617 L 151.213 192.722 L 138.781 192.722 L 159.24 142.426 L 142.719 142.426 L 182.854 52.319 Z " fill="black" stroke="none"/></mask><path d=" M 182.854 52.319 L 173.433 26.104 L 221.351 26.104 L 230.233 49.452 L 177.148 168.39 L 199.267 168.39 L 133.284 292.617 L 151.213 192.722 L 138.781 192.722 L 159.24 142.426 L 142.719 142.426 L 182.854 52.319 Z " fill="none" mask="url(#_mask_ZdE7PpRFC4ufkTfgrZ09ODYPobHKjS8q)" vector-effect="non-scaling-stroke" stroke-width="2.667" stroke="rgb(238,117,39)" stroke-linejoin="miter" stroke-linecap="butt" stroke-miterlimit="10"/><path d=" M 182.854 52.319 L 173.433 26.104 L 221.351 26.104 L 230.233 49.452 L 177.148 168.39 L 199.267 168.39 L 133.284 292.617 L 151.213 192.722 L 138.781 192.722 L 159.24 142.426 L 142.719 142.426 L 182.854 52.319 Z " fill="none"/><path d=" M 216.575 108.977 L 253.44 26.106 L 336.037 26.106 L 344.912 49.454 L 339.997 60.506 L 284.297 60.506 L 268.322 96.552 L 277.743 96.552 L 282.112 86.721 L 278.146 86.721 L 284.98 71.429 L 335.218 71.429 L 308.184 132.052 L 225.45 132.052 L 216.575 108.977 Z " fill="rgb(238,117,39)"/><path d=" M 395.976 88.362 L 386.548 88.362 L 367.167 132.054 L 321.017 132.054 L 356.517 52.316 L 347.096 26.101 L 414.272 26.101 L 396.788 65.424 L 406.216 65.424 L 423.686 26.101 L 450.584 26.101 L 459.459 49.449 L 422.737 132.054 L 376.588 132.054 L 395.976 88.362 Z " fill="rgb(238,117,39)"/><mask id="_mask_FDA8coSuf2AIMsLVrhJSAhvzh4jsbvDr" x="-200%" y="-200%" width="400%" height="400%"><rect x="-200%" y="-200%" width="400%" height="400%" style="fill:white;"/><path d=" M 461.641 26.104 L 544.648 26.104 L 553.66 49.452 L 548.745 60.511 L 529.629 60.511 L 497.823 132.049 L 451.674 132.049 L 483.487 60.511 L 474.066 60.511 L 461.641 26.104 Z " fill="black" stroke="none"/></mask><path d=" M 461.641 26.104 L 544.648 26.104 L 553.66 49.452 L 548.745 60.511 L 529.629 60.511 L 497.823 132.049 L 451.674 132.049 L 483.487 60.511 L 474.066 60.511 L 461.641 26.104 Z " fill="none" mask="url(#_mask_FDA8coSuf2AIMsLVrhJSAhvzh4jsbvDr)" vector-effect="non-scaling-stroke" stroke-width="2.667" stroke="rgb(238,117,39)" stroke-linejoin="miter" stroke-linecap="butt" stroke-miterlimit="10"/><path d=" M 461.641 26.104 L 544.648 26.104 L 553.66 49.452 L 548.745 60.511 L 529.629 60.511 L 497.823 132.049 L 451.674 132.049 L 483.487 60.511 L 474.066 60.511 L 461.641 26.104 Z " fill="none"/><mask id="_mask_kMWhY4wZm4nVw2ynbyDAY0HViKEOL7F7" x="-200%" y="-200%" width="400%" height="400%"><rect x="-200%" y="-200%" width="400%" height="400%" style="fill:white;"/><path d=" M 585.336 132.051 L 617.149 60.505 L 607.721 60.505 L 575.908 132.051 L 529.772 132.051 L 565.265 52.32 L 555.844 26.105 L 659.332 26.105 L 668.07 49.453 L 631.342 132.051 L 585.336 132.051 Z " fill="black" stroke="none"/></mask><path d=" M 585.336 132.051 L 617.149 60.505 L 607.721 60.505 L 575.908 132.051 L 529.772 132.051 L 565.265 52.32 L 555.844 26.105 L 659.332 26.105 L 668.07 49.453 L 631.342 132.051 L 585.336 132.051 Z " fill="none" mask="url(#_mask_kMWhY4wZm4nVw2ynbyDAY0HViKEOL7F7)" vector-effect="non-scaling-stroke" stroke-width="2.667" stroke="rgb(238,117,39)" stroke-linejoin="miter" stroke-linecap="butt" stroke-miterlimit="10"/><path d=" M 585.336 132.051 L 617.149 60.505 L 607.721 60.505 L 575.908 132.051 L 529.772 132.051 L 565.265 52.32 L 555.844 26.105 L 659.332 26.105 L 668.07 49.453 L 631.342 132.051 L 585.336 132.051 Z " fill="none"/><path d=" M 679.809 52.319 L 670.388 26.104 L 718.305 26.104 L 727.187 49.452 L 690.451 132.049 L 644.316 132.049 L 679.809 52.319 Z " fill="rgb(238,117,39)"/><mask id="_mask_24JUv9rBxN1RtOYJ8jHImEy7TkFKZF3Y" x="-200%" y="-200%" width="400%" height="400%"><rect x="-200%" y="-200%" width="400%" height="400%" style="fill:white;"/><path d=" M 758.857 132.051 L 790.67 60.505 L 781.249 60.505 L 749.436 132.051 L 703.293 132.051 L 738.786 52.32 L 729.365 26.105 L 832.853 26.105 L 841.598 49.453 L 804.862 132.051 L 758.857 132.051 Z " fill="black" stroke="none"/></mask><path d=" M 758.857 132.051 L 790.67 60.505 L 781.249 60.505 L 749.436 132.051 L 703.293 132.051 L 738.786 52.32 L 729.365 26.105 L 832.853 26.105 L 841.598 49.453 L 804.862 132.051 L 758.857 132.051 Z " fill="none" mask="url(#_mask_24JUv9rBxN1RtOYJ8jHImEy7TkFKZF3Y)" vector-effect="non-scaling-stroke" stroke-width="2.667" stroke="rgb(238,117,39)" stroke-linejoin="miter" stroke-linecap="butt" stroke-miterlimit="10"/><path d=" M 758.857 132.051 L 790.67 60.505 L 781.249 60.505 L 749.436 132.051 L 703.293 132.051 L 738.786 52.32 L 729.365 26.105 L 832.853 26.105 L 841.598 49.453 L 804.862 132.051 L 758.857 132.051 Z " fill="none"/><path d=" M 828.072 108.977 L 864.937 26.106 L 947.535 26.106 L 956.41 49.454 L 951.495 60.506 L 895.795 60.506 L 879.82 96.552 L 889.241 96.552 L 893.61 86.721 L 889.643 86.721 L 896.478 71.429 L 946.716 71.429 L 919.682 132.052 L 836.947 132.052 L 828.072 108.977 Z " fill="rgb(238,117,39)"/><path d=" M 811.932 225.661 L 819.412 208.558 L 804.659 208.558 L 797.178 225.661 L 811.932 225.661 Z  M 682.588 320.576 L 738.173 195.73 L 723.427 154.683 L 885.468 154.683 L 899.15 191.239 L 882.471 228.866 L 849.551 252.386 L 872.216 252.386 L 841.855 320.576 L 769.598 320.576 L 801.239 249.605 L 786.485 249.605 L 754.852 320.576 L 682.588 320.576 Z " fill="rgb(238,117,39)"/><path d=" M 88.655 52.319 L 79.227 26.104 L 146.403 26.104 L 115.143 96.55 L 150.363 96.55 L 134.532 132.049 L 53.163 132.049 L 88.655 52.319 Z " fill="rgb(238,117,39)"/><path d=" M 182.854 52.319 L 173.433 26.104 L 221.351 26.104 L 230.233 49.452 L 177.148 168.39 L 199.267 168.39 L 133.284 292.617 L 151.213 192.722 L 138.781 192.722 L 159.24 142.426 L 142.719 142.426 L 182.854 52.319 Z " fill="rgb(238,117,39)"/><mask id="_mask_rnWPsE2JNKIK7nf3ESwOiZWy2GYPNw0G" x="-200%" y="-200%" width="400%" height="400%"><rect x="-200%" y="-200%" width="400%" height="400%" style="fill:white;"/><path d=" M 216.575 108.977 L 253.44 26.106 L 336.037 26.106 L 344.912 49.454 L 339.997 60.506 L 284.297 60.506 L 268.322 96.552 L 277.743 96.552 L 282.112 86.721 L 278.146 86.721 L 284.98 71.429 L 335.218 71.429 L 308.184 132.052 L 225.45 132.052 L 216.575 108.977 Z " fill="black" stroke="none"/></mask><path d=" M 216.575 108.977 L 253.44 26.106 L 336.037 26.106 L 344.912 49.454 L 339.997 60.506 L 284.297 60.506 L 268.322 96.552 L 277.743 96.552 L 282.112 86.721 L 278.146 86.721 L 284.98 71.429 L 335.218 71.429 L 308.184 132.052 L 225.45 132.052 L 216.575 108.977 Z " fill="none" mask="url(#_mask_rnWPsE2JNKIK7nf3ESwOiZWy2GYPNw0G)" vector-effect="non-scaling-stroke" stroke-width="2.667" stroke="rgb(238,117,39)" stroke-linejoin="miter" stroke-linecap="butt" stroke-miterlimit="10"/><path d=" M 216.575 108.977 L 253.44 26.106 L 336.037 26.106 L 344.912 49.454 L 339.997 60.506 L 284.297 60.506 L 268.322 96.552 L 277.743 96.552 L 282.112 86.721 L 278.146 86.721 L 284.98 71.429 L 335.218 71.429 L 308.184 132.052 L 225.45 132.052 L 216.575 108.977 Z " fill="none"/><mask id="_mask_HuU1td5y6VrucIqPIO1E122LXnriL9b6" x="-200%" y="-200%" width="400%" height="400%"><rect x="-200%" y="-200%" width="400%" height="400%" style="fill:white;"/><path d=" M 395.976 88.362 L 386.548 88.362 L 367.167 132.054 L 321.017 132.054 L 356.517 52.316 L 347.096 26.101 L 414.272 26.101 L 396.788 65.424 L 406.216 65.424 L 423.686 26.101 L 450.584 26.101 L 459.459 49.449 L 422.737 132.054 L 376.588 132.054 L 395.976 88.362 Z " fill="black" stroke="none"/></mask><path d=" M 395.976 88.362 L 386.548 88.362 L 367.167 132.054 L 321.017 132.054 L 356.517 52.316 L 347.096 26.101 L 414.272 26.101 L 396.788 65.424 L 406.216 65.424 L 423.686 26.101 L 450.584 26.101 L 459.459 49.449 L 422.737 132.054 L 376.588 132.054 L 395.976 88.362 Z " fill="none" mask="url(#_mask_HuU1td5y6VrucIqPIO1E122LXnriL9b6)" vector-effect="non-scaling-stroke" stroke-width="2.667" stroke="rgb(238,117,39)" stroke-linejoin="miter" stroke-linecap="butt" stroke-miterlimit="10"/><path d=" M 395.976 88.362 L 386.548 88.362 L 367.167 132.054 L 321.017 132.054 L 356.517 52.316 L 347.096 26.101 L 414.272 26.101 L 396.788 65.424 L 406.216 65.424 L 423.686 26.101 L 450.584 26.101 L 459.459 49.449 L 422.737 132.054 L 376.588 132.054 L 395.976 88.362 Z " fill="none"/><path d=" M 585.336 132.051 L 617.149 60.505 L 607.721 60.505 L 575.908 132.051 L 529.772 132.051 L 565.265 52.32 L 555.844 26.105 L 659.332 26.105 L 668.07 49.453 L 631.342 132.051 L 585.336 132.051 Z " fill="rgb(238,117,39)"/><mask id="_mask_Ine2I96ufYfhvWGPvSXqEXNgmHldvJ17" x="-200%" y="-200%" width="400%" height="400%"><rect x="-200%" y="-200%" width="400%" height="400%" style="fill:white;"/><path d=" M 679.809 52.319 L 670.388 26.104 L 718.305 26.104 L 727.187 49.452 L 690.451 132.049 L 644.316 132.049 L 679.809 52.319 Z " fill="black" stroke="none"/></mask><path d=" M 679.809 52.319 L 670.388 26.104 L 718.305 26.104 L 727.187 49.452 L 690.451 132.049 L 644.316 132.049 L 679.809 52.319 Z " fill="none" mask="url(#_mask_Ine2I96ufYfhvWGPvSXqEXNgmHldvJ17)" vector-effect="non-scaling-stroke" stroke-width="2.667" stroke="rgb(238,117,39)" stroke-linejoin="miter" stroke-linecap="butt" stroke-miterlimit="10"/><path d=" M 679.809 52.319 L 670.388 26.104 L 718.305 26.104 L 727.187 49.452 L 690.451 132.049 L 644.316 132.049 L 679.809 52.319 Z " fill="none"/><mask id="_mask_IHFlfw4YjiYU0KtLhCkmmdrJB1mU0I35" x="-200%" y="-200%" width="400%" height="400%"><rect x="-200%" y="-200%" width="400%" height="400%" style="fill:white;"/><path d=" M 828.072 108.977 L 864.937 26.106 L 947.535 26.106 L 956.41 49.454 L 951.495 60.506 L 895.795 60.506 L 879.82 96.552 L 889.241 96.552 L 893.61 86.721 L 889.643 86.721 L 896.478 71.429 L 946.716 71.429 L 919.682 132.052 L 836.947 132.052 L 828.072 108.977 Z " fill="black" stroke="none"/></mask><path d=" M 828.072 108.977 L 864.937 26.106 L 947.535 26.106 L 956.41 49.454 L 951.495 60.506 L 895.795 60.506 L 879.82 96.552 L 889.241 96.552 L 893.61 86.721 L 889.643 86.721 L 896.478 71.429 L 946.716 71.429 L 919.682 132.052 L 836.947 132.052 L 828.072 108.977 Z " fill="none" mask="url(#_mask_IHFlfw4YjiYU0KtLhCkmmdrJB1mU0I35)" vector-effect="non-scaling-stroke" stroke-width="2.667" stroke="rgb(238,117,39)" stroke-linejoin="miter" stroke-linecap="butt" stroke-miterlimit="10"/><path d=" M 828.072 108.977 L 864.937 26.106 L 947.535 26.106 L 956.41 49.454 L 951.495 60.506 L 895.795 60.506 L 879.82 96.552 L 889.241 96.552 L 893.61 86.721 L 889.643 86.721 L 896.478 71.429 L 946.716 71.429 L 919.682 132.052 L 836.947 132.052 L 828.072 108.977 Z " fill="none"/><path d=" M 420.924 264.995 L 435.677 264.995 L 460.685 208.555 L 445.932 208.555 L 420.924 264.995 Z  M 397.619 154.68 L 526.748 154.68 L 540.639 191.243 L 483.135 320.58 L 353.798 320.58 L 339.9 284.455 L 397.619 154.68 Z " fill="rgb(238,117,39)"/><path d=" M 420.924 264.995 L 435.677 264.995 L 460.685 208.555 L 445.932 208.555 L 420.924 264.995 Z  M 397.619 154.68 L 526.748 154.68 L 540.639 191.243 L 483.135 320.58 L 353.798 320.58 L 339.9 284.455 L 397.619 154.68 Z " fill="none" vector-effect="non-scaling-stroke" stroke-width="1.333" stroke="rgb(238,117,39)" stroke-linejoin="miter" stroke-linecap="butt" stroke-miterlimit="10"/><path d=" M 544.057 154.683 L 649.241 154.683 L 600.282 264.998 L 615.25 264.998 L 664.21 154.683 L 706.321 154.683 L 720.003 191.239 L 662.492 320.576 L 533.156 320.576 L 519.265 284.451 L 558.81 195.73 L 544.057 154.683 Z " fill="rgb(238,117,39)"/><mask id="_mask_t4Q25zIWlJrG3fTM2KMsKXHknmkALQxC" x="-200%" y="-200%" width="400%" height="400%"><rect x="-200%" y="-200%" width="400%" height="400%" style="fill:white;"/><path d=" M 544.057 154.683 L 649.241 154.683 L 600.282 264.998 L 615.25 264.998 L 664.21 154.683 L 706.321 154.683 L 720.003 191.239 L 662.492 320.576 L 533.156 320.576 L 519.265 284.451 L 558.81 195.73 L 544.057 154.683 Z " fill="black" stroke="none"/></mask><path d=" M 544.057 154.683 L 649.241 154.683 L 600.282 264.998 L 615.25 264.998 L 664.21 154.683 L 706.321 154.683 L 720.003 191.239 L 662.492 320.576 L 533.156 320.576 L 519.265 284.451 L 558.81 195.73 L 544.057 154.683 Z " fill="none" mask="url(#_mask_t4Q25zIWlJrG3fTM2KMsKXHknmkALQxC)" vector-effect="non-scaling-stroke" stroke-width="2.667" stroke="rgb(238,117,39)" stroke-linejoin="miter" stroke-linecap="butt" stroke-miterlimit="10"/><path d=" M 544.057 154.683 L 649.241 154.683 L 600.282 264.998 L 615.25 264.998 L 664.21 154.683 L 706.321 154.683 L 720.003 191.239 L 662.492 320.576 L 533.156 320.576 L 519.265 284.451 L 558.81 195.73 L 544.057 154.683 Z " fill="none"/><path d=" M 811.932 225.661 L 819.412 208.558 L 804.659 208.558 L 797.178 225.661 L 811.932 225.661 Z  M 682.588 320.576 L 738.173 195.73 L 723.427 154.683 L 885.468 154.683 L 899.15 191.239 L 882.471 228.866 L 849.551 252.386 L 872.216 252.386 L 841.855 320.576 L 769.598 320.576 L 801.239 249.605 L 786.485 249.605 L 754.852 320.576 L 682.588 320.576 Z " fill="none" vector-effect="non-scaling-stroke" stroke-width="1.333" stroke="rgb(238,117,39)" stroke-linejoin="miter" stroke-linecap="butt" stroke-miterlimit="10"/><path d=" M 79.082 59.838 L 69.654 33.623 L 136.83 33.623 L 105.571 104.077 L 140.79 104.077 L 124.959 139.569 L 43.59 139.569 L 79.082 59.838 Z " fill="rgb(255,213,31)"/><path d=" M 173.281 59.838 L 163.86 33.623 L 211.778 33.623 L 220.66 56.971 L 167.576 175.91 L 189.695 175.91 L 123.711 300.144 L 141.641 200.249 L 129.209 200.249 L 149.668 149.946 L 133.147 149.946 L 173.281 59.838 Z " fill="rgb(255,213,31)"/><path d=" M 207.002 116.496 L 243.867 33.625 L 326.465 33.625 L 335.34 56.973 L 330.424 68.025 L 274.724 68.025 L 258.749 104.071 L 268.171 104.071 L 272.54 94.24 L 268.573 94.24 L 275.407 78.948 L 325.646 78.948 L 298.611 139.57 L 215.877 139.57 L 207.002 116.496 Z " fill="rgb(255,213,31)"/><path d=" M 386.404 95.881 L 376.976 95.881 L 357.595 139.573 L 311.445 139.573 L 346.945 59.836 L 337.524 33.62 L 404.693 33.62 L 387.216 72.943 L 396.644 72.943 L 414.114 33.62 L 441.012 33.62 L 449.887 56.968 L 413.165 139.573 L 367.016 139.573 L 386.404 95.881 Z " fill="rgb(255,213,31)"/><path d=" M 452.069 33.623 L 535.076 33.623 L 544.088 56.971 L 539.173 68.031 L 520.057 68.031 L 488.244 139.569 L 442.102 139.569 L 473.915 68.031 L 464.494 68.031 L 452.069 33.623 Z " fill="rgb(255,213,31)"/><path d=" M 575.764 139.57 L 607.577 68.025 L 598.149 68.025 L 566.336 139.57 L 520.2 139.57 L 555.693 59.84 L 546.272 33.625 L 649.76 33.625 L 658.498 56.973 L 621.77 139.57 L 575.764 139.57 Z " fill="rgb(255,213,31)"/><path d=" M 670.236 59.838 L 660.815 33.623 L 708.732 33.623 L 717.614 56.971 L 680.879 139.569 L 634.744 139.569 L 670.236 59.838 Z " fill="rgb(255,213,31)"/><path d=" M 749.284 139.57 L 781.097 68.025 L 771.676 68.025 L 739.863 139.57 L 693.72 139.57 L 729.213 59.84 L 719.792 33.625 L 823.28 33.625 L 832.025 56.973 L 795.29 139.57 L 749.284 139.57 Z " fill="rgb(255,213,31)"/><path d=" M 818.5 116.496 L 855.365 33.625 L 937.963 33.625 L 946.838 56.973 L 941.923 68.025 L 886.223 68.025 L 870.248 104.071 L 879.669 104.071 L 884.038 94.24 L 880.072 94.24 L 886.906 78.948 L 937.144 78.948 L 910.11 139.57 L 827.375 139.57 L 818.5 116.496 Z " fill="rgb(255,213,31)"/><path d=" M 205.283 162.206 L 335.259 162.206 L 349.373 198.762 L 341.669 216.081 L 311.746 216.081 L 245.899 364.231 L 264.073 364.231 L 187.325 473.899 L 205.283 395.009 L 186.038 395.009 L 208.704 343.707 L 182.625 343.707 L 239.489 216.081 L 224.736 216.081 L 205.283 162.206 Z " fill="rgb(255,213,31)"/><path d=" M 409.015 272.518 L 423.768 272.518 L 448.776 216.078 L 434.023 216.078 L 409.015 272.518 Z  M 385.71 162.203 L 514.839 162.203 L 528.73 198.759 L 471.226 328.103 L 341.882 328.103 L 327.991 291.971 L 385.71 162.203 Z " fill="rgb(255,213,31)"/><path d=" M 532.148 162.206 L 637.332 162.206 L 588.373 272.521 L 603.341 272.521 L 652.301 162.206 L 694.412 162.206 L 708.094 198.762 L 650.583 328.099 L 521.247 328.099 L 507.356 291.974 L 546.901 203.254 L 532.148 162.206 Z " fill="rgb(255,213,31)"/><path d=" M 800.015 233.18 L 807.503 216.077 L 792.75 216.077 L 785.262 233.18 L 800.015 233.18 Z  M 670.679 328.102 L 726.264 203.249 L 711.518 162.209 L 873.559 162.209 L 887.241 198.758 L 870.562 236.385 L 837.642 259.905 L 860.307 259.905 L 829.946 328.102 L 757.689 328.102 L 789.33 257.124 L 774.576 257.124 L 742.943 328.102 L 670.679 328.102 Z " fill="rgb(255,213,31)"/></g></g></svg>